<svg width="12" height="15" viewBox="0 0 12 15" fill="none" xmlns="http://www.w3.org/2000/svg">
<mask id="path-1-inside-1_24_12" fill="white">
<path fill-rule="evenodd" clip-rule="evenodd" d="M9 4C9 5.65685 7.65685 7 6 7C4.34315 7 3 5.65685 3 4C3 2.34315 4.34315 1 6 1C7.65685 1 9 2.34315 9 4ZM10 4C10 6.20914 8.20914 8 6 8C3.79086 8 2 6.20914 2 4C2 1.79086 3.79086 0 6 0C8.20914 0 10 1.79086 10 4ZM1 13C1 11.3431 2.34315 10 4 10H8C9.65685 10 11 11.3431 11 13V14H1V13ZM0 13C0 10.7909 1.79086 9 4 9H8C10.2091 9 12 10.7909 12 13V15H0V13Z"/>
</mask>
<path fill-rule="evenodd" clip-rule="evenodd" d="M9 4C9 5.65685 7.65685 7 6 7C4.34315 7 3 5.65685 3 4C3 2.34315 4.34315 1 6 1C7.65685 1 9 2.34315 9 4ZM10 4C10 6.20914 8.20914 8 6 8C3.79086 8 2 6.20914 2 4C2 1.79086 3.79086 0 6 0C8.20914 0 10 1.79086 10 4ZM1 13C1 11.3431 2.34315 10 4 10H8C9.65685 10 11 11.3431 11 13V14H1V13ZM0 13C0 10.7909 1.79086 9 4 9H8C10.2091 9 12 10.7909 12 13V15H0V13Z" fill="#1C2A39"/>
<path d="M11 14V15H12V14H11ZM1 14H0V15H1V14ZM12 15V16H13V15H12ZM0 15H-1V16H0V15ZM6 8C8.20914 8 10 6.20914 10 4H8C8 5.10457 7.10457 6 6 6V8ZM2 4C2 6.20914 3.79086 8 6 8V6C4.89543 6 4 5.10457 4 4H2ZM6 0C3.79086 0 2 1.79086 2 4H4C4 2.89543 4.89543 2 6 2V0ZM10 4C10 1.79086 8.20914 0 6 0V2C7.10457 2 8 2.89543 8 4H10ZM6 9C8.76142 9 11 6.76142 11 4H9C9 5.65685 7.65685 7 6 7V9ZM1 4C1 6.76142 3.23858 9 6 9V7C4.34315 7 3 5.65685 3 4H1ZM6 -1C3.23858 -1 1 1.23858 1 4H3C3 2.34315 4.34315 1 6 1V-1ZM11 4C11 1.23858 8.76142 -1 6 -1V1C7.65685 1 9 2.34315 9 4H11ZM4 9C1.79086 9 0 10.7909 0 13H2C2 11.8954 2.89543 11 4 11V9ZM8 9H4V11H8V9ZM12 13C12 10.7909 10.2091 9 8 9V11C9.10457 11 10 11.8954 10 13H12ZM12 14V13H10V14H12ZM1 15H11V13H1V15ZM0 13V14H2V13H0ZM4 8C1.23858 8 -1 10.2386 -1 13H1C1 11.3431 2.34315 10 4 10V8ZM8 8H4V10H8V8ZM13 13C13 10.2386 10.7614 8 8 8V10C9.65685 10 11 11.3431 11 13H13ZM13 15V13H11V15H13ZM0 16H12V14H0V16ZM-1 13V15H1V13H-1Z" fill="#1C2A39" mask="url(#path-1-inside-1_24_12)"/>
</svg>
